HIERARCHY
ROOT Hips
{
  OFFSET -125.086 92.215 135.881
  CHANNELS 6 Xposition Yposition Zposition Zrotation Xrotation Yrotation
  JOINT LeftUpLeg
  {
    OFFSET 8.64259 1.95398 -2.38835
    CHANNELS 3 Zrotation Xrotation Yrotation
    JOINT LeftLeg
    {
      OFFSET 43.7702 0 0
      CHANNELS 3 Zrotation Xrotation Yrotation
      JOINT LeftFoot
      {
        OFFSET 40.6238 0 0
        CHANNELS 3 Zrotation Xrotation Yrotation
        JOINT LeftToeBase
        {
          OFFSET 12.7242 0 0
          CHANNELS 3 Zrotation Xrotation Yrotation
          End Site
          {
            OFFSET 0 0 0
          }
        }
      }
    }
  }
  JOINT RightUpLeg
  {
    OFFSET -8.2249 1.95398 -2.59336
    CHANNELS 3 Zrotation Xrotation Yrotation
    JOINT RightLeg
    {
      OFFSET 43.5653 0 0
      CHANNELS 3 Zrotation Xrotation Yrotation
      JOINT RightFoot
      {
        OFFSET 40.6238 0 0
        CHANNELS 3 Zrotation Xrotation Yrotation
        JOINT RightToeBase
        {
          OFFSET 12.7242 0 0
          CHANNELS 3 Zrotation Xrotation Yrotation
          End Site
          {
            OFFSET 0 0 0
          }
        }
      }
    }
  }
  JOINT Spine
  {
    OFFSET 0.165834 0.87714 6.61349
    CHANNELS 3 Zrotation Xrotation Yrotation
    JOINT Spine1
    {
      OFFSET 7.38963 1.71661e-005 0
      CHANNELS 3 Zrotation Xrotation Yrotation
      JOINT Spine2
      {
        OFFSET 11.9445 1.14441e-005 0
        CHANNELS 3 Zrotation Xrotation Yrotation
        JOINT Spine3
        {
          OFFSET 14.7254 4.19617e-005 0
          CHANNELS 3 Zrotation Xrotation Yrotation
          JOINT Spine4
          {
            OFFSET 10.9679 0 0
            CHANNELS 3 Zrotation Xrotation Yrotation
            JOINT RightShoulder
            {
              OFFSET 2.46616 -1.6653 3.69651
              CHANNELS 3 Zrotation Xrotation Yrotation
              JOINT RightArm
              {
                OFFSET 13.0012 0 0
                CHANNELS 3 Zrotation Xrotation Yrotation
                JOINT RightForeArm
                {
                  OFFSET 28.7848 1.52588e-005 0
                  CHANNELS 3 Zrotation Xrotation Yrotation
                  JOINT RightHand
                  {
                    OFFSET 26.5688 1.52588e-005 0
                    CHANNELS 3 Zrotation Xrotation Yrotation
                    End Site
                    {
                      OFFSET 0 0 0
                    }
                  }
                }
              }
            }
            JOINT LeftShoulder
            {
              OFFSET 2.38034 -1.29275 -3.7523
              CHANNELS 3 Zrotation Xrotation Yrotation
              JOINT LeftArm
              {
                OFFSET 16.3182 6.10352e-005 0
                CHANNELS 3 Zrotation Xrotation Yrotation
                JOINT LeftForeArm
                {
                  OFFSET 27.0901 0 0
                  CHANNELS 3 Zrotation Xrotation Yrotation
                  JOINT LeftHand
                  {
                    OFFSET 24.5451 1.52588e-005 0
                    CHANNELS 3 Zrotation Xrotation Yrotation
                    End Site
                    {
                      OFFSET 0 0 0
                    }
                  }
                }
              }
            }
            JOINT Neck
            {
              OFFSET 5.0226 -0.0266342 0
              CHANNELS 3 Zrotation Xrotation Yrotation
              JOINT Head
              {
                OFFSET 6.69363 2.86102e-005 0
                CHANNELS 3 Zrotation Xrotation Yrotation
                End Site
                {
                  OFFSET 0 0 0
                }
              }
            }
          }
        }
      }
    }
  }
}
MOTION
Frames:	15
Frame Time:	0.0416667
-315.842 69.847 324.194 -79.3652 -6.82142 91.3968 -7.42049 19.3216 -73.9902 170.531 -30.5003 -120.06 23.9546 -13.8833 -25.3633 55.1545 -30.8139 -123.351 -44.8085 -12.7538 -82.3896 -76.3564 -3.38276 0.406259 -34.4878 6.87678 29.2347 146.719 28.7593 40.2774 0.529453 23.6324 -98.3639 -20.7163 -0.563044 -16.1347 -32.4861 -1.26332 -16.096 -54.2603 4.25197 -15.5886 -34.2477 4.25197 -15.5886 126.967 -22.5679 -27.6555 38.7438 -4.22683 13.5919 160.542 54.4098 -161.556 3.85638 -1.18117 -33.9945 -52.793 -37.2248 140.119 -59.3756 -7.08142 -22.3321 -169.319 46.6854 179.978 7.92115 -2.90212 -34.8445 -66.3059 -12.4556 -3.52462 12.8921 -16.9212 -11.3022 
-316.248 69.6019 324.681 -79.3452 -6.70814 91.3905 -7.54044 19.557 -73.8867 171.386 -30.7589 -119.333 22.3803 -14.0068 -27.0491 53.0847 -27.3679 -125.108 -45.033 -12.3136 -82.3131 -76.9469 -5.34258 0.321857 -33.6729 8.19062 30.4367 146.285 28.4503 40.2181 0.588361 23.6143 -98.3863 -20.6736 -0.459439 -16.1428 -32.4436 -1.16019 -16.1085 -54.2192 4.35346 -15.5663 -34.2066 4.35347 -15.5663 127.039 -22.7562 -27.6737 38.8678 -4.2451 13.9786 160.227 53.9852 -160.897 3.82216 -1.17878 -34.142 -52.7885 -37.1505 140.166 -59.3764 -6.66507 -22.5858 -169.537 46.9506 179.978 7.81211 -2.95817 -35.7507 -66.3192 -12.1733 -3.90348 12.9162 -16.8064 -11.2369 
-317.392 68.9 326.037 -79.2909 -6.40331 91.3719 -7.88913 20.2637 -73.6771 174.254 -31.5809 -117.259 18.4168 -14.1316 -31.511 48.6082 -18.1916 -128.002 -45.6034 -11.0794 -82.1969 -78.5486 -10.4388 0.174764 -31.442 11.5972 33.2163 145.143 27.5193 39.96 0.754451 23.5636 -98.4468 -20.5537 -0.166914 -16.1611 -32.3241 -0.868667 -16.1392 -54.1045 4.63877 -15.4989 -34.0918 4.63878 -15.4989 127.258 -23.3067 -27.7137 39.2 -4.30192 15.059 159.432 52.762 -159.125 3.7301 -1.16969 -34.5037 -52.7767 -36.9425 140.297 -59.3658 -5.5021 -23.3082 -170.099 47.7482 179.923 7.49653 -3.11157 -38.3412 -66.3341 -11.3794 -4.95729 12.9661 -16.4804 -11.0726 
-319.173 67.7635 328.112 -79.215 -5.95759 91.3389 -8.45577 21.3989 -73.502 -179.543 -33.2146 -113.602 14.0535 -13.8805 -37.3675 44.3062 -7.18814 -128.013 -46.3643 -9.18758 -82.2465 -80.8651 -17.2297 0.152196 -28.0209 16.0956 35.9757 143.585 25.9342 39.3259 1.01084 23.4846 -98.5351 -20.3675 0.286118 -16.1811 -32.1384 -0.416871 -16.1783 -53.9278 5.07819 -15.3865 -33.9152 5.07818 -15.3865 127.635 -24.2094 -27.741 39.6773 -4.39724 16.6947 158.443 50.802 -156.609 3.57497 -1.14629 -34.9467 -52.7593 -36.6312 140.491 -59.3232 -3.74177 -24.4579 -171.494 49.1977 -179.397 6.99716 -3.32827 -42.4305 -66.3003 -10.1632 -6.54927 13 -15.9758 -10.8646 
-321.48 66.2213 330.749 -79.132 -5.41947 91.2892 -9.23652 22.7473 -73.357 -165.417 -36.3173 -105.999 12.8814 -13.3653 -42.1713 42.4021 -2.12039 -121.752 -47.1915 -6.7146 -82.6812 -83.4065 -24.2694 0.440265 -23.5675 20.542 37.2225 141.872 23.7358 38.1973 1.34047 23.3814 -98.6407 -20.1252 0.870629 -16.1946 -31.8963 0.166495 -16.2165 -53.7003 5.64148 -15.2292 -33.6877 5.64148 -15.2292 128.19 -25.4582 -27.7135 40.2374 -4.52939 18.7394 157.55 48.1705 -153.712 3.33661 -1.09731 -35.3426 -52.7267 -36.2592 140.743 -59.2285 -1.54777 -26.0045 -173.91 51.396 -177.656 6.27467 -3.53577 -47.7562 -66.1669 -8.62292 -8.54516 12.9784 -15.3313 -10.6629 
-324.15 64.3224 333.775 -79.0549 -4.84014 91.222 -10.3453 23.6431 -73.107 -124.078 -38.0057 -82.1327 21.6596 -13.0248 -37.3004 52.0589 -17.7981 -103.635 -47.9653 -3.7702 -83.6997 -85.7327 -30.5584 1.21132 -18.2212 23.9119 36.1291 140.164 21.0714 36.5932 1.72574 23.2584 -98.7521 -19.8384 1.55674 -16.1921 -31.6092 0.852154 -16.243 -53.4346 6.29737 -15.0266 -33.422 6.29737 -15.0266 128.939 -27.0372 -27.5909 40.8219 -4.69817 21.0533 156.97 44.962 -150.713 2.99619 -1.01324 -35.5797 -52.6699 -35.8689 141.047 -59.0606 0.913007 -27.9091 -176.76 54.4093 -175.585 5.21398 -3.59415 -53.895 -65.896 -6.86211 -10.8238 12.8767 -14.5906 -10.4989 
-326.955 62.2376 337.048 -78.9947 -4.28092 91.1408 -12.0337 23.5265 -73.5725 -63.1154 -14.7957 -53.8267 31.9194 -11.1096 -13.8102 95.6945 -27.5597 -43.3769 -48.5185 -0.41177 -85.4083 -87.3013 -35.5461 2.60683 -12.5982 25.4037 32.7786 138.533 18.1616 34.6459 2.14763 23.1224 -98.8568 -19.5228 2.31288 -16.1612 -31.2925 1.60891 -16.2442 -53.147 7.0119 -14.7757 -33.1343 7.01193 -14.7757 129.891 -28.9127 -27.3404 41.3733 -4.90712 23.5063 156.825 41.317 -147.784 2.54607 -0.890015 -35.5659 -52.5857 -35.4956 141.39 -58.7993 3.47849 -30.1076 179.951 58.371 -173.146 3.65863 -3.29414 -60.247 -65.4696 -4.98797 -13.2753 12.6869 -13.8012 -10.3853 
-329.792 60.3099 340.317 -78.9584 -3.82305 91.055 -13.5972 24.0261 -74.6374 -37.8409 3.23632 -50.3061 31.7277 -10.8384 -1.03278 116.962 -21.8873 -17.3163 -48.7531 2.92316 -87.892 -87.7044 -39.1633 4.69889 -7.80514 24.6891 28.2173 136.994 15.2741 32.5703 2.58603 22.9832 -98.9396 -19.2003 3.10551 -16.0849 -30.968 2.40403 -16.2015 -52.8603 7.748 -14.4694 -32.8476 7.74799 -14.4694 131.039 -31.0281 -26.9407 41.8314 -5.16553 25.9807 157.132 37.4289 -145.005 1.9982 -0.732405 -35.2305 -52.4775 -35.1628 141.752 -58.4243 6.00257 -32.4958 175.897 63.2946 -169.976 1.50314 -2.41292 -66.1129 -64.8908 -3.10421 -15.7962 12.4123 -13.0075 -10.3235 
-332.484 58.5862 343.319 -78.9471 -3.57433 90.9822 -14.9333 24.8789 -75.7637 -27.946 9.71798 -49.037 32.4945 -11.5684 2.87603 122.795 -20.0375 -12.5029 -48.5267 5.80971 -91.2452 -87.2572 -41.4852 7.45077 -4.4192 22.1256 23.3035 135.509 12.7094 30.6519 3.02124 22.8553 -98.9839 -18.9013 3.90267 -15.9395 -30.6655 3.20663 -16.0902 -52.6053 8.46814 -14.0943 -32.5927 8.46814 -14.0943 132.364 -33.3089 -26.3875 42.1342 -5.48827 28.3793 157.822 33.5302 -142.386 1.39197 -0.555962 -34.5268 -52.358 -34.875 142.11 -57.9049 8.37063 -34.9322 170.185 68.9196 -165.16 -1.18996 -0.866122 -70.8936 -64.1734 -1.29615 -18.2919 12.0572 -12.2399 -10.315 
-334.797 57.1934 345.832 -78.9547 -3.67067 90.9489 -16.1297 25.8241 -77.4026 -21.8798 13.4713 -46.2896 33.8433 -12.9354 4.66636 126.433 -22.078 -13.3981 -47.6601 8.02443 -95.289 -86.452 -41.7268 10.5511 -2.8011 17.645 18.5269 134.002 10.8078 29.2406 3.43617 22.7567 -98.9714 -18.6638 4.67753 -15.6952 -30.423 3.99115 -15.8792 -52.4207 9.1378 -13.6291 -32.4081 9.13779 -13.6291 133.835 -35.6751 -25.6918 42.2187 -5.89323 30.6254 158.765 29.8619 -139.914 0.796904 -0.385167 -33.4252 -52.2484 -34.6164 142.437 -57.1937 10.505 -37.2548 160.602 74.677 -156.507 -4.18998 1.18061 -74.2734 -63.334 0.37752 -20.6809 11.6176 -11.5097 -10.3645 
-336.499 56.3149 347.591 -78.9645 -4.28213 90.9898 -17.0783 27.0963 -79.9276 -16.8061 17.0555 -41.6063 35.2573 -15.777 5.76595 129.076 -27.0673 -17.6508 -46.0267 9.13448 -99.7073 -85.3498 -41.9687 14.0203 -2.80412 14.3625 14.0798 132.362 9.95843 28.7673 3.81657 22.7097 -98.882 -18.5337 5.40901 -15.3137 -30.2859 4.73809 -15.5297 -52.353 9.72547 -13.0432 -32.3404 9.72548 -13.0432 135.411 -38.0482 -24.8776 42.0181 -6.39873 32.6555 159.799 26.6531 -137.584 0.319626 -0.25155 -31.8997 -52.1768 -34.3524 142.706 -56.2174 12.3584 -39.2903 141.609 79.61 -138.548 -7.19778 3.40829 -76.2585 -62.3798 1.87975 -22.8952 11.0804 -10.8107 -10.4739 
-337.362 56.1721 348.312 -78.9455 -5.61175 91.1521 -17.6108 29.3759 -83.7908 -12.8099 19.8116 -33.7274 35.9293 -18.9449 5.04513 129.676 -34.3419 -24.9829 -43.5327 8.75579 -104.061 -85.1851 -39.5163 16.908 -4.09824 10.6955 9.7953 130.438 10.5838 29.7613 4.15082 22.7396 -98.693 -18.5631 6.08064 -14.7484 -30.3062 5.43316 -14.9942 -52.4551 10.2015 -12.2965 -32.4424 10.2015 -12.2965 137.046 -40.3586 -23.98 41.4571 -7.0199 34.4106 160.745 24.1086 -135.428 0.122995 -0.191453 -29.9163 -52.1778 -34.0313 142.888 -54.8692 13.9075 -40.8573 105.616 81.9332 -103.811 -9.93035 5.48012 -77.1117 -61.3035 3.18911 -24.881 10.4246 -10.1223 -10.6349 
-337.202 57.0625 347.743 -78.8487 -7.8621 91.4934 -17.3841 34.4075 -90.4032 -7.10228 23.246 -19.5462 34.4293 -24.9853 1.68158 126.135 -42.6354 -36.1315 -40.1969 6.65668 -107.981 -86.489 -33.1812 18.968 -6.24366 6.60434 5.0044 127.977 13.1781 32.9427 4.42881 22.8701 -98.381 -18.801 6.67759 -13.9496 -30.5326 6.06355 -14.2228 -52.7753 10.5367 -11.346 -32.7626 10.5367 -11.346 138.692 -42.5558 -23.0388 40.4519 -7.76244 35.831 161.432 22.404 -133.515 0.458907 -0.240447 -27.4276 -52.2909 -33.589 142.955 -53.0284 15.1555 -41.7636 69.8335 80.2612 -69.6544 -12.1777 7.15165 -77.2026 -60.08 4.29224 -26.5968 9.62204 -9.41636 -10.8333 
-335.953 59.4162 345.734 -78.6088 -11.1793 92.0814 -15.4496 40.8937 -97.7554 -1.63976 26.8161 -3.96656 31.0775 -30.4101 -3.57274 116.425 -49.6674 -52.1147 -36.9282 4.53052 -114.16 -89.0354 -17.7155 25.1394 -9.79007 -3.82659 -6.4515 124.099 18.4958 39.8945 4.63923 23.1153 -97.9255 -19.2789 7.17979 -12.8769 -30.9969 6.61119 -13.1741 -53.3425 10.6995 -10.1596 -33.3298 10.6995 -10.1596 140.312 -44.613 -22.0912 38.9088 -8.61902 36.8529 161.702 21.7144 -131.952 1.73103 -0.42651 -24.3833 -52.5576 -32.9555 142.876 -50.6069 16.1404 -41.7879 51.5725 76.3611 -53.5334 -13.7994 8.29876 -76.8482 -56.8046 6.63813 -27.852 5.43959 -6.11525 -15.0312 
-333.856 63.9284 342.4 -78.145 -15.5967 92.9928 -13.3095 41.4691 -97.2785 -2.18957 29.5213 -4.4329 33.367 -28.828 -1.29319 101.568 -52.9581 -71.4566 -32.2366 4.28918 -121.81 -118.025 26.8382 44.4066 3.36027 -25.1625 -25.2714 113.77 29.4327 58.3264 4.76523 23.4746 -97.3127 -19.998 7.55319 -11.5125 -31.7009 7.04285 -11.8289 -54.151 10.6514 -8.73205 -34.1384 10.6514 -8.73204 141.881 -46.5306 -21.1655 36.7154 -9.56529 37.4015 161.394 22.3254 -130.809 4.75638 -0.758509 -20.6944 -53.0233 -32.0563 142.612 -47.6189 16.9458 -40.648 43.5465 71.7994 -48.2585 -14.6779 8.84851 -76.2572 -47.2612 13.2522 -28.5307 -5.32115 4.22326 -32.0274 
